<svg xmlns="http://www.w3.org/2000/svg" xmlns:xlink="http://www.w3.org/1999/xlink" viewBox="0 0 613.03517463686 1000" fill="none" data-circuit="monza">
  <path id="track-monza" d="M57.4 624.3 L72.8 442.4 L79.8 366.1 L80.6 363 L82.8 361.2 L85.5 360.8 L88.8 361.2 L92 361.5 L94.9 361.2 L96.8 359.7 L98.4 357.5 L98.8 355.5 L98.8 353.3 L87.8 311.7 L86.3 300.4 L85.7 290.1 L86.5 279 L90.6 224.7 L92.2 215.9 L94.1 207.6 L97 198.8 L100.9 189.2 L105.4 179.8 L112 169.4 L118.9 160.7 L128.1 150.9 L138 142.3 L149.2 134.3 L161.1 127.4 L174.5 120.7 L188 116 L202.9 111.8 L219.6 108.9 L236.8 107.4 L303.8 101.6 L385.8 96.7 L390.7 96.3 L393.2 94.9 L395.4 92.7 L398.1 83.1 L399.3 80.5 L401.2 78.7 L404.5 77.6 L415.7 75.6 L427.8 72.9 L444.9 67.4 L521.7 41.6 L528.3 40 L534.6 40 L540.6 41.1 L544.9 42.9 L549 45.3 L552.9 48 L557.8 53.3 L560.5 57.5 L562.5 62.7 L563.5 68.4 L566.8 104.9 L573 167.2 L572.8 172.7 L571.8 176.3 L570.3 179.4 L567.8 181.6 L563.1 184.7 L512.9 211.9 L472.1 234.7 L446.7 248.8 L434.4 255.9 L420.5 265.6 L410.6 273.2 L402 280.8 L357.5 319 L325.9 347.7 L259.1 406.4 L218.9 441.8 L213.4 447.3 L211.2 450.9 L210.8 454.4 L210.8 458.6 L212.2 468 L212.6 473.1 L212.6 480.4 L212 484.4 L210.4 489.5 L208.1 495.5 L204.2 501.6 L198.9 507.8 L192.9 512.9 L188 516.6 L185.5 519.6 L183.5 523.5 L181.7 530.9 L177.7 564.5 L173.4 600.3 L140.2 921.3 L138.8 932.8 L137.4 938.2 L134.7 943.7 L131 948.2 L126.7 952.2 L120.7 956.2 L114 958.6 L106.4 960 L99.9 959.5 L93.9 958.2 L86.9 955.5 L80 952.4 L75 948.9 L68.9 944.2 L62.1 936.8 L57.4 930.2 L53.3 923.1 L49.8 914.6 L46.5 905.3 L43.9 895.7 L42.7 887.5 L41.4 875.1 L41.2 862.6 L41 850.8 L40.4 827.5 L40 807 L40.4 784.8 L42.9 755.7 L52.5 663.6 L57.4 624.3 Z" stroke="currentColor" stroke-width="9.1" stroke-linejoin="round" stroke-linecap="round" />
  <circle r="9.1" fill="#e10600">
    <animateMotion dur="14s" repeatCount="indefinite" rotate="auto">
      <mpath href="#track-monza" xlink:href="#track-monza" />
    </animateMotion>
  </circle>
</svg>
